<svg width="199" height="55" viewBox="0 0 199 55" fill="none" xmlns="http://www.w3.org/2000/svg">
<path d="M0.437855 54V1.63636H11.5089V44.8722H33.9577V54H0.437855ZM87.3697 27.8182C87.3697 33.5284 86.2873 38.3864 84.1225 42.392C81.9748 46.3977 79.043 49.4574 75.3271 51.571C71.6282 53.6676 67.4691 54.7159 62.8498 54.7159C58.1964 54.7159 54.0202 53.6591 50.3214 51.5455C46.6225 49.4318 43.6992 46.3722 41.5515 42.3665C39.4038 38.3608 38.3299 33.5114 38.3299 27.8182C38.3299 22.108 39.4038 17.25 41.5515 13.2443C43.6992 9.23864 46.6225 6.1875 50.3214 4.09091C54.0202 1.97727 58.1964 0.920453 62.8498 0.920453C67.4691 0.920453 71.6282 1.97727 75.3271 4.09091C79.043 6.1875 81.9748 9.23864 84.1225 13.2443C86.2873 17.25 87.3697 22.108 87.3697 27.8182ZM76.1452 27.8182C76.1452 24.1193 75.5913 21 74.4833 18.4602C73.3924 15.9205 71.8498 13.9943 69.8555 12.6818C67.8612 11.3693 65.5259 10.7131 62.8498 10.7131C60.1737 10.7131 57.8384 11.3693 55.8441 12.6818C53.8498 13.9943 52.2987 15.9205 51.1907 18.4602C50.0998 21 49.5543 24.1193 49.5543 27.8182C49.5543 31.517 50.0998 34.6364 51.1907 37.1761C52.2987 39.7159 53.8498 41.642 55.8441 42.9545C57.8384 44.267 60.1737 44.9233 62.8498 44.9233C65.5259 44.9233 67.8612 44.267 69.8555 42.9545C71.8498 41.642 73.3924 39.7159 74.4833 37.1761C75.5913 34.6364 76.1452 31.517 76.1452 27.8182ZM130.292 18.5625C129.934 17.3182 129.431 16.2187 128.784 15.2642C128.136 14.2926 127.343 13.4744 126.406 12.8097C125.485 12.1278 124.429 11.608 123.235 11.25C122.059 10.892 120.755 10.7131 119.324 10.7131C116.647 10.7131 114.295 11.3778 112.267 12.7074C110.255 14.0369 108.687 15.9716 107.562 18.5114C106.437 21.0341 105.875 24.1193 105.875 27.767C105.875 31.4148 106.429 34.517 107.537 37.0739C108.645 39.6307 110.213 41.5824 112.241 42.929C114.27 44.2585 116.664 44.9233 119.426 44.9233C121.931 44.9233 124.071 44.4801 125.843 43.5938C127.633 42.6903 128.997 41.4205 129.934 39.7841C130.889 38.1477 131.366 36.2131 131.366 33.9801L133.616 34.3125H120.116V25.9773H142.028V32.5739C142.028 37.1761 141.056 41.1307 139.113 44.4375C137.17 47.7273 134.494 50.267 131.085 52.0568C127.676 53.8295 123.772 54.7159 119.375 54.7159C114.466 54.7159 110.153 53.6335 106.437 51.4688C102.721 49.2869 99.8235 46.1932 97.744 42.1875C95.6815 38.1648 94.6502 33.392 94.6502 27.8693C94.6502 23.625 95.2638 19.8409 96.4911 16.517C97.7354 13.1761 99.4741 10.3466 101.707 8.02841C103.94 5.71023 106.539 3.94602 109.505 2.73579C112.471 1.52557 115.684 0.920453 119.145 0.920453C122.11 0.920453 124.872 1.35511 127.429 2.22443C129.985 3.0767 132.252 4.28693 134.23 5.85511C136.224 7.42329 137.852 9.28977 139.113 11.4545C140.375 13.6023 141.184 15.9716 141.542 18.5625H130.292ZM198.463 27.8182C198.463 33.5284 197.381 38.3864 195.216 42.392C193.069 46.3977 190.137 49.4574 186.421 51.571C182.722 53.6676 178.563 54.7159 173.944 54.7159C169.29 54.7159 165.114 53.6591 161.415 51.5455C157.716 49.4318 154.793 46.3722 152.645 42.3665C150.498 38.3608 149.424 33.5114 149.424 27.8182C149.424 22.108 150.498 17.25 152.645 13.2443C154.793 9.23864 157.716 6.1875 161.415 4.09091C165.114 1.97727 169.29 0.920453 173.944 0.920453C178.563 0.920453 182.722 1.97727 186.421 4.09091C190.137 6.1875 193.069 9.23864 195.216 13.2443C197.381 17.25 198.463 22.108 198.463 27.8182ZM187.239 27.8182C187.239 24.1193 186.685 21 185.577 18.4602C184.486 15.9205 182.944 13.9943 180.949 12.6818C178.955 11.3693 176.62 10.7131 173.944 10.7131C171.267 10.7131 168.932 11.3693 166.938 12.6818C164.944 13.9943 163.392 15.9205 162.284 18.4602C161.194 21 160.648 24.1193 160.648 27.8182C160.648 31.517 161.194 34.6364 162.284 37.1761C163.392 39.7159 164.944 41.642 166.938 42.9545C168.932 44.267 171.267 44.9233 173.944 44.9233C176.62 44.9233 178.955 44.267 180.949 42.9545C182.944 41.642 184.486 39.7159 185.577 37.1761C186.685 34.6364 187.239 31.517 187.239 27.8182Z" fill="white"/>
</svg>
