<svg width="192" height="55" viewBox="0 0 192 55" fill="none" xmlns="http://www.w3.org/2000/svg">
<path d="M0.340909 54V1.63636H6.68182V48.375H31.0227V54H0.340909ZM82.9837 27.8182C82.9837 33.3409 81.9865 38.1136 79.9922 42.1364C77.9979 46.1591 75.2621 49.2614 71.7848 51.4432C68.3075 53.625 64.3359 54.7159 59.87 54.7159C55.4041 54.7159 51.4325 53.625 47.9553 51.4432C44.478 49.2614 41.7422 46.1591 39.7479 42.1364C37.7536 38.1136 36.7564 33.3409 36.7564 27.8182C36.7564 22.2955 37.7536 17.5227 39.7479 13.5C41.7422 9.47727 44.478 6.375 47.9553 4.19318C51.4325 2.01136 55.4041 0.920453 59.87 0.920453C64.3359 0.920453 68.3075 2.01136 71.7848 4.19318C75.2621 6.375 77.9979 9.47727 79.9922 13.5C81.9865 17.5227 82.9837 22.2955 82.9837 27.8182ZM76.8473 27.8182C76.8473 23.2841 76.0888 19.4574 74.5717 16.3381C73.0717 13.2188 71.0348 10.858 68.4609 9.25568C65.9041 7.65341 63.0405 6.85227 59.87 6.85227C56.6996 6.85227 53.8274 7.65341 51.2536 9.25568C48.6967 10.858 46.6598 13.2188 45.1428 16.3381C43.6428 19.4574 42.8928 23.2841 42.8928 27.8182C42.8928 32.3523 43.6428 36.179 45.1428 39.2983C46.6598 42.4176 48.6967 44.7784 51.2536 46.3807C53.8274 47.983 56.6996 48.7841 59.87 48.7841C63.0405 48.7841 65.9041 47.983 68.4609 46.3807C71.0348 44.7784 73.0717 42.4176 74.5717 39.2983C76.0888 36.179 76.8473 32.3523 76.8473 27.8182ZM129.441 18C128.879 16.2784 128.137 14.7358 127.217 13.3722C126.313 11.9915 125.231 10.8153 123.969 9.84375C122.725 8.87216 121.31 8.13068 119.725 7.61931C118.14 7.10795 116.401 6.85227 114.509 6.85227C111.407 6.85227 108.586 7.65341 106.046 9.25568C103.506 10.858 101.487 13.2188 99.9865 16.3381C98.4865 19.4574 97.7365 23.2841 97.7365 27.8182C97.7365 32.3523 98.495 36.179 100.012 39.2983C101.529 42.4176 103.583 44.7784 106.174 46.3807C108.765 47.983 111.68 48.7841 114.918 48.7841C117.918 48.7841 120.56 48.1449 122.844 46.8665C125.146 45.571 126.935 43.7472 128.214 41.3949C129.509 39.0256 130.157 36.2386 130.157 33.0341L132.1 33.4432H116.35V27.8182H136.293V33.4432C136.293 37.7557 135.373 41.5057 133.532 44.6932C131.708 47.8807 129.185 50.3523 125.964 52.108C122.759 53.8466 119.077 54.7159 114.918 54.7159C110.282 54.7159 106.208 53.625 102.697 51.4432C99.2024 49.2614 96.4751 46.1591 94.5149 42.1364C92.5717 38.1136 91.6001 33.3409 91.6001 27.8182C91.6001 23.6761 92.1541 19.9517 93.2621 16.6449C94.3871 13.321 95.9723 10.4915 98.0178 8.15625C100.063 5.82102 102.484 4.03125 105.279 2.78693C108.075 1.54261 111.151 0.920453 114.509 0.920453C117.271 0.920453 119.844 1.33807 122.231 2.17329C124.634 2.99147 126.773 4.15909 128.648 5.67613C130.54 7.17613 132.117 8.97443 133.379 11.071C134.64 13.1506 135.509 15.4602 135.987 18H129.441ZM191.335 27.8182C191.335 33.3409 190.338 38.1136 188.344 42.1364C186.349 46.1591 183.614 49.2614 180.136 51.4432C176.659 53.625 172.688 54.7159 168.222 54.7159C163.756 54.7159 159.784 53.625 156.307 51.4432C152.83 49.2614 150.094 46.1591 148.099 42.1364C146.105 38.1136 145.108 33.3409 145.108 27.8182C145.108 22.2955 146.105 17.5227 148.099 13.5C150.094 9.47727 152.83 6.375 156.307 4.19318C159.784 2.01136 163.756 0.920453 168.222 0.920453C172.688 0.920453 176.659 2.01136 180.136 4.19318C183.614 6.375 186.349 9.47727 188.344 13.5C190.338 17.5227 191.335 22.2955 191.335 27.8182ZM185.199 27.8182C185.199 23.2841 184.44 19.4574 182.923 16.3381C181.423 13.2188 179.386 10.858 176.812 9.25568C174.256 7.65341 171.392 6.85227 168.222 6.85227C165.051 6.85227 162.179 7.65341 159.605 9.25568C157.048 10.858 155.011 13.2188 153.494 16.3381C151.994 19.4574 151.244 23.2841 151.244 27.8182C151.244 32.3523 151.994 36.179 153.494 39.2983C155.011 42.4176 157.048 44.7784 159.605 46.3807C162.179 47.983 165.051 48.7841 168.222 48.7841C171.392 48.7841 174.256 47.983 176.812 46.3807C179.386 44.7784 181.423 42.4176 182.923 39.2983C184.44 36.179 185.199 32.3523 185.199 27.8182Z" fill="black"/>
</svg>
