<svg xmlns="http://www.w3.org/2000/svg" width="48" height="24" viewBox="0 0 48 24">
  <g id="Group_158" data-name="Group 158" transform="translate(-561 -4423)">
    <rect id="Rectangle_474" data-name="Rectangle 474" width="48" height="24" rx="5" transform="translate(561 4423)" fill="#fff"/>
    <path id="apple_pay_logo_icon_145487" d="M4.388,10.619a1.466,1.466,0,0,1-1.18.563,1.7,1.7,0,0,1,.422-1.239A1.772,1.772,0,0,1,4.8,9.334a1.814,1.814,0,0,1-.414,1.285Zm.41.653c-.652-.04-1.211.374-1.52.374s-.789-.355-1.3-.343a1.908,1.908,0,0,0-1.633,1c-.707,1.222-.184,3.031.5,4.027.332.492.73,1.031,1.254,1.016.5-.02.7-.328,1.293-.328s.777.328,1.305.316.886-.492,1.218-.984a4.336,4.336,0,0,0,.543-1.133A1.788,1.788,0,0,1,5.392,13.6a1.832,1.832,0,0,1,.855-1.528,1.839,1.839,0,0,0-1.449-.8ZM8.561,9.9v7.392H9.7V14.761h1.571a2.332,2.332,0,0,0,2.442-2.434,2.307,2.307,0,0,0-2.4-2.43Zm1.136.969h1.309a1.371,1.371,0,0,1,1.547,1.465A1.376,1.376,0,0,1,11,13.8H9.7Zm6.082,6.478a1.874,1.874,0,0,0,1.676-.942h.024v.887h1.05V13.607c0-1.062-.843-1.753-2.145-1.753a1.906,1.906,0,0,0-2.125,1.656H15.28a1,1,0,0,1,1.075-.754c.7,0,1.082.328,1.082.93v.406l-1.414.086c-1.321.082-2.032.625-2.032,1.574a1.612,1.612,0,0,0,1.789,1.59Zm.309-.875c-.606,0-.992-.293-.992-.742,0-.465.371-.739,1.078-.782l1.262-.078v.418a1.238,1.238,0,0,1-1.352,1.184ZM19.933,19.3c1.1,0,1.625-.43,2.079-1.723L24,11.928H22.852l-1.336,4.363h-.024l-1.336-4.363H18.969l1.922,5.38-.1.328a.908.908,0,0,1-.957.765c-.09,0-.262-.011-.332-.019v.887a3.139,3.139,0,0,0,.43.027Z" transform="translate(572.996 4420.666)"/>
  </g>
</svg>
