<svg xmlns="http://www.w3.org/2000/svg" width="48" height="24" viewBox="0 0 48 24">
  <g id="Group_156" data-name="Group 156" transform="translate(-449 -4423)">
    <rect id="Rectangle_472" data-name="Rectangle 472" width="48" height="24" rx="5" transform="translate(449 4423)" fill="#fff"/>
    <g id="visa-svgrepo-com" transform="translate(400.803 4282.031)">
      <path id="Path_206" data-name="Path 206" d="M122.639,156.262l1.213-7.148h1.941l-1.214,7.148Zm8.952-6.994a5,5,0,0,0-1.739-.3c-1.918,0-3.269.969-3.28,2.359-.011,1.027.964,1.6,1.7,1.942.755.35,1.009.574,1.006.887,0,.479-.6.7-1.161.7a4.057,4.057,0,0,1-1.827-.375l-.25-.114-.272,1.6a6.122,6.122,0,0,0,2.162.381c2.04,0,3.365-.958,3.38-2.442.007-.813-.51-1.432-1.63-1.942-.678-.331-1.094-.551-1.089-.886,0-.3.352-.615,1.112-.615a3.569,3.569,0,0,1,1.453.274l.174.082.263-1.549m4.994-.154h-1.5a.965.965,0,0,0-1.016.593l-2.882,6.55h2.038s.333-.881.409-1.074l2.486,0c.058.25.236,1.071.236,1.071h1.8l-1.571-7.143Zm-2.379,4.616c.161-.412.773-2,.773-2-.011.019.159-.414.257-.682l.131.616.449,2.064h-1.611Zm-13.214-4.616-1.9,4.874-.2-.991a5.571,5.571,0,0,0-2.688-3l1.737,6.251,2.053,0,3.055-7.134h-2.056" transform="translate(-53.959)" fill="#0e4595"/>
      <path id="Path_207" data-name="Path 207" d="M63.363,152.96H60.222l-.025.149a6.448,6.448,0,0,1,4.733,3.74l-.683-3.285a.816.816,0,0,0-.883-.6" transform="translate(0 -3.846)" fill="#f2ae14"/>
    </g>
  </g>
</svg>
