<svg xmlns="http://www.w3.org/2000/svg" width="48" height="24" viewBox="0 0 48 24">
  <g id="Group_155" data-name="Group 155" transform="translate(-393 -4423)">
    <rect id="Rectangle_471" data-name="Rectangle 471" width="48" height="24" rx="5" transform="translate(393 4423)" fill="#fff"/>
    <g id="mastercard-seeklogo.com" transform="translate(405 4428)">
      <rect id="Rectangle_470" data-name="Rectangle 470" width="6.513" height="11.702" transform="translate(8.744 1.592)" fill="#ff5f00"/>
      <path id="Path_204" data-name="Path 204" d="M9.2,7.443a7.463,7.463,0,0,1,2.832-5.851,7.44,7.44,0,1,0-4.59,13.294,7.4,7.4,0,0,0,4.59-1.592A7.432,7.432,0,0,1,9.2,7.443Z" transform="translate(0 0)" fill="#eb001b"/>
      <path id="Path_205" data-name="Path 205" d="M140.016,7.443a7.435,7.435,0,0,1-12.033,5.851,7.459,7.459,0,0,0,0-11.7,7.435,7.435,0,0,1,12.033,5.851Z" transform="translate(-116.016 0)" fill="#f79e1b"/>
    </g>
  </g>
</svg>
