<svg xmlns="http://www.w3.org/2000/svg" width="48" height="24" viewBox="0 0 48 24">
  <g id="Group_157" data-name="Group 157" transform="translate(-505 -4423)">
    <rect id="Rectangle_473" data-name="Rectangle 473" width="48" height="24" rx="5" transform="translate(505 4423)" fill="#fff"/>
    <g id="upi-ar21" transform="translate(506.998 4415.801)">
      <path id="Path_208" data-name="Path 208" d="M95.678,22.7l3.438-3.136-1.628-3.244Z" transform="translate(-65.112 -0.091)" fill="#097939" fill-rule="evenodd"/>
      <path id="Path_209" data-name="Path 209" d="M90.854,22.7l3.438-3.136-1.628-3.244Z" transform="translate(-61.446 -0.091)" fill="#ed752e" fill-rule="evenodd"/>
      <path id="Path_210" data-name="Path 210" d="M12.98,16.264l-1.447,5.155,5.138.036,1.411-5.191h1.3L17.692,22.3a.605.605,0,0,1-.551.418H10.555a.519.519,0,0,1-.528-.7l1.614-5.756Zm15.886-.036h1.3l-1.809,6.488H27.019Zm-9.336,2.7,6.513-.036.434-1.37H19.855l.4-1.262L27.31,16.2a.569.569,0,0,1,.585.76l-.665,2.43a1.1,1.1,0,0,1-1.006.767H20.4l-.687,2.667H18.444Z" transform="translate(0)" fill="#747474" fill-rule="evenodd"/>
    </g>
  </g>
</svg>
