<svg width="146" height="59" viewBox="0 0 146 59" fill="none" xmlns="http://www.w3.org/2000/svg">
<g clip-path="url(#clip0_0_51)">
<path d="M0.599476 1.67411C5.34918 0.25 10.0133 2.58036 13.95 5.12649C18.2718 7.9747 22.2513 11.4271 26.8726 13.7574C31.1089 15.9152 35.6874 16.5625 39.9664 14.189C42.6194 12.7217 44.8445 10.564 47.1124 8.57887C49.3802 6.59375 51.8193 4.47917 54.7718 3.61607C60.3345 2.0625 65.5549 6.33482 69.8339 9.3125C74.1985 12.3765 78.991 15.6562 84.5537 14.6637C89.9881 13.7143 94.5239 9.7872 98.9312 6.72321C103.253 3.65923 108.259 0.336309 113.779 1.37202C119.128 2.36458 123.664 6.03274 128.157 8.88095C132.051 11.3408 136.801 14.0164 141.55 12.7217C142.706 12.3765 143.818 11.8155 144.802 11.125C145.316 10.7798 144.845 9.91667 144.332 10.2619C142.278 11.7292 139.881 12.3333 137.4 11.9449C134.918 11.5565 132.607 10.3482 130.425 9.09673C125.761 6.37798 121.482 2.83929 116.39 1.06994C105.093 -2.85714 97.0913 8.75149 87.7202 12.7217C85.2812 13.7574 82.5854 14.2753 79.9752 13.6711C77.2366 13.067 74.7976 11.5565 72.4869 10.003C68.0795 7.0253 63.501 2.79613 57.9383 2.36458C52.0332 1.88988 47.6259 6.98214 43.4752 10.4777C41.2929 12.3333 38.8967 14.1027 36.0297 14.6637C33.7618 15.0952 31.4512 14.6637 29.3117 13.8438C24.5192 11.9881 20.4969 8.53571 16.3035 5.64435C12.5807 3.0119 8.3017 0.25 3.59479 0.25C2.48224 0.25 1.41249 0.422619 0.342735 0.724702C-0.256327 0.897321 0.000414229 1.84673 0.599476 1.67411Z" fill="white"/>
<path d="M0.599047 23.5104C5.34875 22.0863 10.0129 24.4167 13.9496 26.9628C18.2714 29.811 22.2509 33.2202 26.8722 35.5937C31.1084 37.7515 35.687 38.3988 39.966 36.0253C42.619 34.558 44.8441 32.4003 47.1119 30.4152C49.3798 28.4301 51.8189 26.3155 54.7714 25.4524C60.3341 23.8988 65.5545 28.1711 69.8335 31.1488C74.1981 34.2128 78.9906 37.4926 84.5533 36.5C89.9877 35.5506 94.5234 31.6235 98.9308 28.5595C103.253 25.4955 108.259 22.1726 113.779 23.2083C119.128 24.2009 123.664 27.869 128.156 30.7173C132.05 33.1771 136.8 35.8527 141.55 34.558C142.705 34.2128 143.818 33.6518 144.802 32.9613C145.315 32.6161 144.845 31.753 144.331 32.0982C142.277 33.5655 139.881 34.1696 137.399 33.7812C134.917 33.3929 132.607 32.1845 130.424 30.933C125.803 28.2143 121.524 24.6756 116.432 22.9062C105.135 18.9792 97.1336 30.5878 87.7626 34.558C85.3235 35.5937 82.6278 36.1116 80.0176 35.5074C77.279 34.9033 74.84 33.3929 72.5293 31.8393C68.1219 28.8616 63.5434 24.6324 57.9806 24.2009C52.0756 23.7262 47.6682 28.8185 43.5176 32.314C41.3353 34.1696 38.939 35.939 36.0721 36.5C33.8042 36.9315 31.4935 36.5 29.354 35.6801C24.5615 33.8244 20.5393 30.372 16.3458 27.4807C12.6231 24.8914 8.34406 22.1295 3.63715 22.1295C2.5246 22.1295 1.41206 22.3021 0.385096 22.6042C-0.256756 22.7336 -1.53109e-05 23.683 0.599047 23.5104Z" fill="white"/>
<path d="M1.58324 44.2247C6.33295 42.8006 10.9971 45.131 14.9338 47.6771C19.2556 50.4821 23.2351 53.9345 27.8564 56.2649C32.0926 58.4226 36.6712 59.0699 40.9502 56.6964C43.6032 55.2292 45.8283 53.0714 48.0961 51.0863C50.364 49.1012 52.8031 46.9866 55.7556 46.1235C61.3183 44.5699 66.5387 48.8423 70.8177 51.8199C75.1823 54.8839 79.9748 58.1637 85.5375 57.1711C90.9719 56.2217 95.5076 52.2946 99.915 49.2307C104.237 46.1667 109.243 42.8438 114.763 43.8795C120.112 44.872 124.648 48.5402 129.141 51.3884C133.035 53.8482 137.784 56.5238 142.534 55.2292C143.689 54.8839 144.802 54.3229 145.786 53.6324C146.3 53.2872 145.829 52.4241 145.315 52.7693C143.261 54.2366 140.865 54.8408 138.383 54.4524C135.902 54.064 133.591 52.8557 131.409 51.6042C126.787 48.8854 122.508 45.3467 117.416 43.5774C106.12 39.6503 98.1178 51.2589 88.7468 55.2292C86.3077 56.2649 83.612 56.7396 81.0018 56.1786C78.2632 55.5744 75.8242 54.064 73.5135 52.5104C69.1061 49.5327 64.5276 45.3036 58.9648 44.872C53.0598 44.3973 48.6524 49.4896 44.5018 52.9851C42.3195 54.8408 39.9232 56.6101 37.0563 57.1711C34.7884 57.6027 32.4777 57.1711 30.3382 56.3512C25.5457 54.4955 21.4807 51.0432 17.33 48.1518C13.6073 45.5625 9.32826 42.8006 4.62134 42.8006C3.5088 42.8006 2.39625 42.9732 1.36929 43.2753C0.727436 43.4911 0.984177 44.3973 1.58324 44.2247Z" fill="white"/>
</g>
<defs>
<clipPath id="clip0_0_51">
<rect width="146" height="58" fill="white" transform="translate(0 0.25)"/>
</clipPath>
</defs>
</svg>
